HIERARCHY
ROOT hip
{
	OFFSET 0.000000 0.000000 0.000000
	CHANNELS 6 Xposition Yposition Zposition Xrotation Zrotation Yrotation 
	JOINT abdomen
	{
		OFFSET 0.000000 3.422050 0.000000
		CHANNELS 3 Xrotation Zrotation Yrotation 
		JOINT chest
		{
			OFFSET 0.000000 8.486693 -0.684411
			CHANNELS 3 Xrotation Zrotation Yrotation 
			JOINT neck
			{
				OFFSET 0.000000 10.266162 -0.273764
				CHANNELS 3 Xrotation Zrotation Yrotation 
				JOINT head
				{
					OFFSET 0.000000 3.148285 0.000000
					CHANNELS 3 Xrotation Zrotation Yrotation 
					End Site
					{
						OFFSET 0.000000 3.148289 0.000000
					}
				}
			}
			JOINT lCollar
			{
				OFFSET 3.422053 6.707223 -0.821293
				CHANNELS 3 Yrotation Zrotation Xrotation 
				JOINT lShldr
				{
					OFFSET 3.285171 0.000000 0.000000
					CHANNELS 3 Zrotation Yrotation Xrotation 
					JOINT lForeArm
					{
						OFFSET 10.129278 0.000000 0.000000
						CHANNELS 3 Yrotation Zrotation Xrotation 
						JOINT lHand
						{
							OFFSET 8.486692 0.000000 0.000000
							CHANNELS 3 Zrotation Yrotation Xrotation 
							End Site
							{
								OFFSET 4.106464 0.000000 0.000000
							}
						}
					}
				}
			}
			JOINT rCollar
			{
				OFFSET -3.558935 6.707223 -0.821293
				CHANNELS 3 Yrotation Zrotation Xrotation 
				JOINT rShldr
				{
					OFFSET -3.148289 0.000000 0.000000
					CHANNELS 3 Zrotation Yrotation Xrotation 
					JOINT rForeArm
					{
						OFFSET -10.266159 0.000000 0.000000
						CHANNELS 3 Yrotation Zrotation Xrotation 
						JOINT rHand
						{
							OFFSET -8.349810 0.000000 0.000000
							CHANNELS 3 Zrotation Yrotation Xrotation 
							End Site
							{
								OFFSET -4.106464 0.000000 0.000000
							}
						}
					}
				}
			}
		}
	}
	JOINT lThigh
	{
		OFFSET 5.338403 -1.642589 1.368821
		CHANNELS 3 Xrotation Zrotation Yrotation 
		JOINT lShin
		{
			OFFSET -2.053232 -20.121670 0.000000
			CHANNELS 3 Xrotation Zrotation Yrotation 
			JOINT lFoot
			{
				OFFSET 0.000000 -19.300380 -1.231939
				CHANNELS 3 Xrotation Yrotation Zrotation 
				End Site
				{
					OFFSET 0.000000 -2.463878 4.653993
				}
			}
		}
	}
	JOINT rThigh
	{
		OFFSET -5.338403 -1.642589 1.368821
		CHANNELS 3 Xrotation Zrotation Yrotation 
		JOINT rShin
		{
			OFFSET 2.053232 -20.121670 0.000000
			CHANNELS 3 Xrotation Zrotation Yrotation 
			JOINT rFoot
			{
				OFFSET 0.000000 -19.300380 -1.231939
				CHANNELS 3 Xrotation Yrotation Zrotation 
				End Site
				{
					OFFSET 0.000000 -2.463878 4.653993
				}
			}
		}
	}
}
MOTION
Frames: 10
Frame Time: 0.033264
19.995884 42.994492 12.792915 18.997522 0.000000 0.000000 -8.335250 -0.539980 -0.120196 5.153450 -0.666928 -0.799461 -26.001497 0.000000 0.000000 17.998348 0.000000 0.000000 3.333831 11.416764 17.416502 -76.875931 1.302430 -2.080727 25.734774 -34.698376 9.504808 4.828642 -26.408888 7.350337 -7.349676 -4.433598 18.764380 76.113152 -2.557362 -2.131068 -14.436179 20.315981 4.370335 3.825336 22.098841 7.676775 -33.136665 11.324120 64.191628 16.960833 7.530813 -1.020423 5.346085 -32.387463 -4.463874 -37.007931 -5.249024 -23.313602 14.665381 -9.111371 0.222245 3.597875 5.866117 15.426440 
19.995884 43.030975 12.792915 18.997522 0.000000 0.000000 -8.335250 -0.539980 -0.120196 5.814922 -0.666923 -0.799439 -26.001497 0.000000 0.000000 17.998348 0.000000 0.000000 3.409502 11.200546 17.004850 -76.875931 1.302430 -2.080727 25.441994 -34.355801 9.338377 4.667221 -26.308119 7.217024 -7.429593 -4.094677 18.364164 76.120728 -2.547730 -2.132276 -14.076617 19.902615 4.261851 4.014906 21.924629 7.550637 -32.822823 11.203614 64.390800 16.530838 7.281879 -1.055562 5.636921 -32.556896 -4.281131 -36.695560 -5.017656 -22.153599 14.110295 -8.978434 0.262583 4.008458 4.713099 15.570707 
19.995884 43.067459 12.792915 18.997522 0.000000 0.000000 -8.335250 -0.539980 -0.120196 6.476285 -0.666919 -0.799417 -26.001497 0.000000 0.000000 17.998348 0.000000 0.000000 3.483526 10.983817 16.593824 -76.875931 1.302430 -2.080727 25.151627 -34.012569 9.174747 4.505683 -26.207687 7.083514 -7.507091 -3.755243 17.964621 76.128304 -2.538097 -2.133482 -13.718860 19.488670 4.156415 4.204652 21.750809 7.424037 -32.509563 11.082049 64.589226 16.101276 7.032717 -1.088795 5.928938 -32.725536 -4.097025 -36.378807 -4.792743 -20.993298 13.555574 -8.845130 0.301597 4.421159 3.561683 15.722969 
19.995884 43.103947 12.792915 18.997522 0.000000 0.000000 -8.335250 -0.539980 -0.120196 7.137492 -0.666914 -0.799394 -26.001497 0.000000 0.000000 17.998348 0.000000 0.000000 3.555905 10.766601 16.183432 -76.875931 1.302430 -2.080727 24.863628 -33.668686 9.013880 4.344028 -26.107592 6.949806 -7.582181 -3.415330 17.565752 76.135872 -2.528464 -2.134687 -13.362860 19.074173 4.053996 4.394571 21.577385 7.296974 -32.196877 10.959430 64.786865 15.672142 6.783345 -1.120126 6.222140 -32.893383 -3.911560 -36.057888 -4.574423 -19.832966 13.001237 -8.711484 0.339283 4.836196 2.412194 15.883246 
19.995884 43.140430 12.792915 18.997522 0.000000 0.000000 -8.335250 -0.539980 -0.120196 7.798502 -0.666910 -0.799372 -26.001497 0.000000 0.000000 17.998348 0.000000 0.000000 3.626636 10.548910 15.773670 -76.875931 1.302430 -2.080727 24.577969 -33.324184 8.855741 4.182261 -26.007847 6.815908 -7.654857 -3.074968 17.167542 76.143463 -2.518832 -2.135891 -13.008590 18.659161 3.954569 4.584665 21.404375 7.169458 -31.884781 10.835763 64.983704 15.243430 6.533789 -1.149554 6.516522 -33.060394 -3.724731 -35.733002 -4.362825 -18.672867 12.447309 -8.577514 0.375638 5.253790 1.264970 16.051588 
19.995884 43.176914 12.792915 18.997522 0.000000 0.000000 -8.335250 -0.539980 -0.120196 8.459271 -0.666906 -0.799350 -26.001497 0.000000 0.000000 17.998348 0.000000 0.000000 3.695722 10.330768 15.364540 -76.875931 1.302430 -2.080727 24.294600 -32.979073 8.700294 4.020383 -25.908443 6.681818 -7.725126 -2.734188 16.769970 76.151016 -2.509198 -2.137092 -12.656024 18.243679 3.858109 4.774932 21.231770 7.041488 -31.573284 10.711063 65.179779 14.815146 6.284073 -1.177083 6.812097 -33.226608 -3.536537 -35.404373 -4.158070 -17.513279 11.893810 -8.443239 0.410660 5.674161 0.120337 16.228035 
19.995884 43.213398 12.792915 18.997522 0.000000 0.000000 -8.335250 -0.539980 -0.120196 9.119753 -0.666902 -0.799328 -26.001497 0.000000 0.000000 17.998348 0.000000 0.000000 3.763163 10.112191 14.956041 -76.875931 1.302430 -2.080727 24.013493 -32.633389 8.547503 3.858395 -25.809401 6.547541 -7.792990 -2.393024 16.373030 76.158592 -2.499565 -2.138293 -12.305123 17.827763 3.764590 4.965372 21.059582 6.913065 -31.262390 10.585335 65.375046 14.387292 6.034221 -1.202716 7.108856 -33.391983 -3.346980 -35.072201 -3.960267 -16.354464 11.340761 -8.308678 0.444348 6.097530 -1.021378 16.412640 
19.995884 43.249882 12.792915 18.997522 0.000000 0.000000 -8.335250 -0.539980 -0.120196 9.779904 -0.666899 -0.799306 -26.001497 0.000000 0.000000 17.998348 0.000000 0.000000 3.828960 9.893202 14.548183 -76.875931 1.302430 -2.080727 23.734613 -32.287155 8.397341 3.696296 -25.710695 6.413075 -7.858450 -2.051507 15.976714 76.166161 -2.489932 -2.139493 -11.955854 17.411446 3.673987 5.155982 20.887808 6.784192 -30.952112 10.458589 65.569519 13.959863 5.784255 -1.226455 7.406805 -33.556511 -3.156054 -34.736736 -3.769521 -15.196710 10.788181 -8.173850 0.476698 6.524114 -2.159839 16.605463 
19.995884 43.286366 12.792915 18.997522 0.000000 0.000000 -8.335250 -0.539980 -0.120196 10.439687 -0.666896 -0.799284 -26.001497 0.000000 0.000000 17.998348 0.000000 0.000000 3.893112 9.673814 14.140955 -76.875931 1.302430 -2.080727 23.457920 -31.940382 8.249763 3.534090 -25.612345 6.278423 -7.921513 -1.709667 15.581005 76.173737 -2.480299 -2.140691 -11.608191 16.994764 3.586275 5.346765 20.716459 6.654872 -30.642435 10.330825 65.763161 13.532853 5.534197 -1.248303 7.705947 -33.720200 -2.963761 -34.398190 -3.585917 -14.040282 10.236091 -8.038775 0.507710 6.954137 -3.294729 16.806570 
19.995884 43.322853 12.792915 18.997522 0.000000 0.000000 -8.335250 -0.539980 -0.120196 11.099049 -0.666893 -0.799262 -26.001497 0.000000 0.000000 17.998348 0.000000 0.000000 3.955623 9.454050 13.734364 -76.875931 1.302430 -2.080727 23.183386 -31.593113 8.104746 3.371780 -25.514351 6.143589 -7.982176 -1.367539 15.185900 76.181305 -2.470665 -2.141888 -11.262092 16.577753 3.501429 5.537717 20.545540 6.525109 -30.333389 10.202059 65.955986 13.106267 5.284074 -1.268263 8.006282 -33.883015 -2.770099 -34.056793 -3.409540 -12.885468 9.684512 -7.903474 0.537383 7.387820 -4.425717 17.016039 
